<svg xmlns="http://www.w3.org/2000/svg" width="28" height="28" fill="#FFFFFF" viewBox="0 0 24 24">
  <path d="M12 .5C5.73.5.5 5.73.5 12.02c0 5.1 3.3 9.43 7.88 10.96.58.1.8-.25.8-.56 0-.28-.01-1.2-.02-2.18-3.21.7-3.89-1.55-3.89-1.55-.53-1.35-1.3-1.7-1.3-1.7-1.07-.73.08-.72.08-.72 1.18.08 1.8 1.2 1.8 1.2 1.05 1.8 2.75 1.28 3.42.98.1-.77.41-1.28.75-1.58-2.57-.29-5.27-1.28-5.27-5.7 0-1.26.46-2.3 1.2-3.12-.12-.3-.52-1.52.1-3.16 0 0 .97-.31 3.18 1.2a11.1 11.1 0 0 1 2.9-.4c.99 0 1.99.13 2.9.4 2.2-1.51 3.17-1.2 3.17-1.2.62 1.64.22 2.86.1 3.16.75.82 1.2 1.86 1.2 3.12 0 4.43-2.7 5.4-5.28 5.68.42.36.8 1.1.8 2.23 0 1.6-.01 2.9-.01 3.3 0 .31.21.67.8.56A10.5 10.5 0 0 0 23.5 12c0-6.29-5.23-11.5-11.5-11.5z"></path>
</svg>
